<?xml version="1.0" standalone="no"?>
<!DOCTYPE svg PUBLIC "-//W3C//DTD SVG 20010904//EN"
 "http://www.w3.org/TR/2001/REC-SVG-20010904/DTD/svg10.dtd">
<svg version="1.0" xmlns="http://www.w3.org/2000/svg"
 width="3264.000000pt" height="1702.000000pt" viewBox="0 0 3264.000000 1702.000000"
 preserveAspectRatio="xMidYMid meet">

<g transform="translate(0.000000,1702.000000) scale(0.100000,-0.100000)"
fill="#000000" stroke="none">
<path d="M2711 12049 c-46 -4 -105 -12 -130 -18 -25 -5 -66 -14 -91 -20 -66
-15 -185 -57 -238 -85 -26 -14 -84 -41 -129 -60 -186 -80 -494 -324 -581 -461
-15 -22 -49 -69 -78 -105 -28 -36 -65 -93 -82 -128 -16 -34 -34 -68 -40 -75
-5 -6 -15 -30 -22 -52 -7 -22 -16 -44 -20 -50 -4 -5 -13 -28 -20 -50 -7 -22
-18 -51 -25 -65 -23 -45 -54 -134 -65 -184 -6 -27 -15 -57 -21 -68 -6 -11 -17
-95 -25 -186 -9 -92 -18 -189 -21 -217 -3 -27 0 -72 6 -100 6 -27 16 -133 21
-235 11 -204 34 -302 114 -482 9 -21 16 -40 16 -44 0 -3 6 -20 14 -37 8 -18
22 -48 30 -67 31 -71 84 -157 145 -238 75 -100 238 -260 324 -320 102 -71 150
-102 159 -102 4 0 24 -11 44 -25 81 -55 265 -129 359 -145 28 -4 64 -15 80
-24 17 -9 47 -16 67 -16 21 0 61 -9 90 -19 61 -23 329 -54 463 -55 110 0 337
30 385 51 19 8 55 19 80 23 61 12 266 82 315 109 22 11 43 21 47 21 5 0 45 24
91 54 45 29 92 58 105 65 39 21 192 140 275 215 59 52 85 84 103 124 l24 54 0
484 0 484 -322 -2 -323 -3 0 -34 c0 -32 4 -36 70 -70 71 -37 73 -40 120 -141
18 -38 35 -161 41 -305 20 -418 21 -511 8 -542 -15 -37 -140 -191 -178 -220
-175 -131 -248 -167 -436 -214 -83 -20 -120 -23 -285 -24 -149 0 -203 4 -250
17 -33 9 -87 23 -120 32 -101 25 -149 41 -175 58 -14 9 -35 19 -48 23 -13 4
-50 24 -82 46 -33 21 -61 39 -64 39 -3 0 -42 28 -88 62 -121 91 -340 317 -390
403 -23 39 -67 113 -98 165 -69 115 -110 198 -110 221 0 10 -4 20 -9 23 -5 3
-14 27 -21 53 -6 27 -17 55 -23 63 -21 26 -99 290 -116 390 -6 36 -15 88 -21
115 -7 29 -11 165 -11 325 0 248 2 282 21 345 11 38 20 85 20 102 0 18 9 56
20 85 11 29 20 61 20 71 0 19 47 121 100 217 16 30 30 60 30 65 0 40 260 310
370 385 106 72 326 170 382 170 14 0 51 9 83 20 52 18 84 20 306 20 213 0 255
-3 310 -19 35 -10 75 -21 89 -24 68 -14 367 -156 396 -188 10 -12 60 -53 109
-91 50 -39 104 -86 120 -106 80 -97 165 -218 165 -237 0 -26 47 -81 76 -90 14
-3 28 1 39 11 18 19 17 60 -4 169 -5 28 -10 131 -10 231 -1 178 -1 182 -26
208 -13 14 -34 26 -46 26 -12 0 -63 18 -113 39 -50 21 -125 49 -166 61 -41 12
-100 30 -130 40 -30 10 -77 22 -105 25 -27 4 -93 15 -147 26 -82 16 -137 19
-380 18 -155 -1 -321 -5 -367 -10z"/>
<path d="M7912 12020 c-37 -25 -80 -44 -113 -50 -62 -12 -103 -38 -107 -68 -2
-11 7 -54 19 -94 16 -57 20 -88 16 -138 -7 -74 -59 -243 -104 -340 -71 -152
-138 -318 -162 -405 -10 -34 -33 -90 -61 -150 -44 -93 -74 -165 -100 -246 -15
-47 -33 -95 -38 -105 -36 -68 -126 -285 -147 -354 -23 -79 -48 -143 -87 -226
-21 -45 -38 -85 -38 -89 0 -4 -6 -21 -14 -38 -41 -91 -59 -137 -73 -181 -8
-27 -21 -59 -29 -72 -16 -23 -62 -131 -121 -279 -34 -88 -67 -161 -143 -320
-21 -44 -52 -110 -69 -146 -45 -94 -128 -182 -210 -224 -77 -38 -94 -55 -89
-87 3 -23 4 -23 198 -28 107 -3 201 -9 208 -13 13 -9 134 8 162 23 30 15 21
41 -39 103 -33 34 -65 76 -71 92 -14 37 -5 131 20 200 10 28 30 91 45 140 15
50 35 113 46 140 10 28 19 57 19 65 0 9 8 27 17 40 17 23 61 125 127 295 15
39 36 88 46 110 10 22 26 57 35 78 10 20 30 48 45 60 l28 24 695 6 c383 4 703
4 712 1 15 -6 75 -88 75 -103 0 -6 60 -145 117 -271 9 -19 24 -53 34 -75 10
-22 29 -74 44 -115 14 -41 33 -85 41 -97 8 -12 14 -30 14 -40 0 -10 8 -31 18
-48 9 -16 23 -48 31 -70 7 -22 18 -46 24 -53 18 -23 53 -131 93 -287 4 -13 -9
-42 -35 -82 -43 -63 -52 -107 -25 -117 9 -3 134 -6 278 -6 168 0 275 -4 295
-11 25 -9 48 -8 111 7 111 25 114 47 18 124 -110 87 -206 228 -302 442 -9 20
-16 39 -16 43 0 4 -18 44 -39 88 -46 96 -91 202 -91 216 0 14 -85 217 -110
263 -11 20 -20 42 -20 49 0 7 -11 35 -24 63 -55 118 -66 143 -66 153 0 13 -30
84 -81 189 -21 44 -39 89 -39 98 0 10 -10 39 -23 65 -13 25 -34 74 -47 109
-12 35 -40 97 -61 139 -22 41 -39 85 -39 97 0 12 -4 26 -9 31 -4 6 -17 32 -27
60 -10 27 -26 65 -36 84 -10 20 -18 42 -18 51 0 9 -6 24 -14 35 -7 11 -17 31
-21 45 -4 14 -25 62 -46 108 -22 46 -39 88 -39 93 0 11 -40 109 -72 179 -21
44 -33 71 -82 182 -15 31 -26 61 -26 67 0 6 -9 30 -19 53 -10 24 -29 70 -41
103 -20 51 -79 194 -125 300 -8 17 -16 44 -20 60 -3 17 -14 45 -25 63 -18 29
-24 32 -69 32 -40 0 -59 -7 -109 -40z m-62 -555 c13 -14 40 -74 61 -138 20
-63 53 -147 72 -188 20 -41 48 -105 63 -144 14 -38 42 -102 60 -142 19 -39 34
-74 34 -78 0 -3 18 -44 40 -91 22 -47 40 -88 40 -90 0 -16 135 -349 160 -395
11 -20 20 -48 20 -61 0 -13 4 -28 9 -33 6 -6 28 -62 51 -125 47 -130 45 -155
-12 -165 -18 -3 -307 -5 -641 -3 l-609 3 -19 24 c-10 13 -19 37 -19 53 0 30
55 203 70 223 11 14 120 261 120 272 0 5 9 26 20 48 11 22 20 52 20 67 0 15 4
29 9 32 14 9 111 226 111 248 0 4 11 32 25 62 14 30 25 61 25 69 0 8 14 45 31
83 54 119 66 148 84 199 10 28 22 55 25 60 4 6 15 35 25 65 10 30 24 64 31 75
8 11 14 26 14 35 0 21 28 60 44 60 7 0 23 -11 36 -25z"/>
<path d="M27005 12030 c-81 -47 -112 -60 -150 -60 -47 0 -85 -36 -85 -82 0
-18 7 -58 15 -88 8 -30 15 -75 15 -100 0 -61 -46 -232 -96 -355 -6 -16 -15
-41 -18 -55 -4 -14 -24 -63 -45 -110 -21 -47 -47 -107 -59 -135 -11 -27 -32
-78 -46 -111 -14 -34 -26 -67 -26 -74 0 -7 -14 -42 -31 -78 -30 -62 -105 -243
-135 -324 -7 -20 -27 -66 -44 -101 -16 -35 -30 -67 -30 -71 0 -4 -16 -43 -35
-87 -38 -86 -95 -250 -95 -271 0 -8 -9 -32 -20 -53 -40 -77 -160 -352 -160
-366 0 -8 -18 -50 -40 -94 -22 -44 -40 -87 -40 -95 0 -8 -11 -35 -24 -60 -13
-25 -38 -85 -55 -135 -52 -153 -58 -167 -111 -270 -99 -189 -119 -220 -177
-276 -32 -31 -91 -75 -131 -99 -65 -37 -73 -45 -70 -68 l3 -27 290 0 290 0 3
26 c2 21 -8 35 -51 72 -98 84 -109 147 -52 317 20 58 40 123 45 145 10 40 40
117 65 165 7 14 23 50 35 80 12 30 31 78 42 105 10 28 25 68 33 90 41 120 54
154 74 190 11 22 21 43 21 47 0 20 66 109 84 113 12 2 331 6 709 8 627 3 690
2 715 -13 24 -15 51 -64 107 -195 27 -62 76 -171 86 -189 6 -10 17 -40 25 -66
8 -27 21 -61 29 -77 8 -15 15 -32 15 -38 0 -14 52 -137 89 -212 55 -113 110
-285 118 -369 4 -48 3 -53 -42 -105 -28 -33 -45 -62 -43 -74 3 -19 12 -20 293
-27 160 -3 323 -9 362 -13 79 -8 130 -2 157 18 17 12 17 16 3 43 -8 16 -33 39
-55 52 -99 55 -249 278 -334 495 -21 56 -43 106 -48 112 -5 6 -23 47 -40 90
-17 44 -37 94 -44 110 -8 17 -24 51 -35 76 -12 25 -21 51 -21 59 0 14 -38 102
-70 162 -11 20 -20 44 -20 52 0 8 -11 36 -25 62 -14 26 -25 53 -25 61 0 8 -9
31 -19 51 -11 20 -29 64 -41 97 -13 33 -33 83 -45 110 -13 28 -33 73 -45 100
-11 28 -26 59 -32 70 -6 11 -15 33 -19 50 -10 40 -47 131 -114 280 -39 85 -65
148 -65 156 0 12 -84 211 -122 289 -17 36 -44 99 -59 140 -34 95 -74 194 -98
245 -72 151 -95 204 -102 235 -7 35 -58 159 -105 255 -13 28 -24 54 -24 59 0
5 -11 32 -24 60 -13 28 -28 63 -34 79 -10 24 -17 27 -54 27 -29 0 -59 -10 -93
-30z m-85 -580 c11 -11 20 -25 20 -31 0 -11 78 -195 116 -273 13 -28 24 -56
24 -63 0 -7 4 -21 9 -31 5 -9 20 -42 34 -72 13 -30 34 -75 45 -100 11 -25 34
-79 51 -120 18 -41 36 -83 42 -93 5 -10 18 -44 28 -75 10 -31 50 -129 88 -217
39 -88 84 -196 101 -240 17 -44 48 -120 68 -168 41 -99 38 -128 -12 -147 -17
-7 -250 -9 -646 -8 l-620 3 -19 24 c-25 30 -24 86 1 136 11 22 20 44 20 50 0
5 9 28 20 50 42 86 131 313 150 383 4 19 14 41 22 50 26 33 73 143 173 407 14
39 30 77 36 85 34 54 103 227 144 363 33 106 62 130 105 87z"/>
<path d="M11599 12028 c-13 -25 -14 -25 55 -91 74 -71 108 -144 122 -262 5
-38 9 -700 9 -1470 0 -1076 -3 -1421 -13 -1490 -15 -106 -44 -162 -112 -213
-51 -39 -74 -74 -65 -101 9 -28 57 -44 107 -36 24 4 552 10 1173 14 622 3
1135 9 1141 13 7 5 13 74 17 185 3 98 12 213 18 255 10 62 10 80 -1 92 -33 40
-93 3 -139 -87 -38 -73 -100 -146 -176 -205 -119 -94 -249 -138 -450 -154
-213 -16 -799 -22 -865 -8 -30 7 -65 14 -78 16 -13 3 -38 19 -57 37 -37 35
-47 70 -65 242 -11 102 -11 2498 0 2665 15 225 31 363 45 390 21 41 83 111
125 142 42 31 56 56 40 72 -6 6 -155 10 -416 10 -371 1 -407 0 -415 -16z"/>
<path d="M15729 12034 c-15 -18 0 -43 47 -75 50 -34 210 -196 251 -254 16 -22
53 -80 82 -130 30 -49 70 -112 89 -139 20 -27 55 -90 80 -140 24 -50 59 -115
79 -144 19 -29 59 -101 90 -160 31 -59 82 -153 114 -209 33 -56 59 -104 59
-107 0 -3 39 -74 87 -158 47 -84 100 -182 116 -218 17 -36 55 -107 85 -159 40
-70 56 -110 63 -155 11 -75 11 -908 0 -1141 -7 -154 -11 -176 -35 -230 -31
-68 -53 -95 -113 -136 -45 -31 -62 -64 -44 -83 8 -7 94 -14 254 -18 133 -5
292 -11 352 -14 73 -4 129 -1 165 7 99 22 103 39 21 105 -32 26 -73 70 -89 98
-27 44 -33 66 -42 166 -6 63 -15 144 -21 180 -16 102 -8 1009 10 1085 10 43
31 85 76 150 34 50 66 101 70 114 6 20 181 333 204 366 4 6 18 37 31 70 13 33
34 75 47 94 13 19 23 38 23 44 0 6 8 20 19 31 10 12 40 62 67 111 79 147 98
179 129 226 32 48 58 93 74 125 5 12 27 48 48 80 49 77 54 85 77 125 11 19 32
50 47 69 15 19 35 52 44 73 20 48 137 162 232 227 41 28 77 50 82 50 11 0 51
45 51 58 0 24 -45 28 -323 26 -258 -1 -290 -3 -305 -18 -16 -16 -14 -20 30
-59 82 -73 98 -101 98 -179 0 -65 -3 -75 -75 -215 -41 -81 -82 -154 -90 -163
-8 -9 -15 -19 -15 -23 0 -3 -14 -26 -31 -51 -16 -25 -46 -78 -65 -118 -19 -40
-40 -82 -46 -93 -7 -11 -25 -45 -41 -75 -16 -30 -37 -68 -47 -85 -10 -16 -40
-73 -67 -125 -27 -52 -62 -115 -78 -140 -16 -25 -53 -92 -83 -150 -29 -58 -69
-127 -87 -155 -18 -27 -42 -68 -53 -90 -11 -22 -32 -51 -46 -64 -22 -21 -29
-22 -53 -12 -23 9 -46 44 -117 184 -49 95 -98 185 -109 200 -11 16 -47 83 -81
150 -34 67 -79 146 -99 176 -20 29 -37 57 -37 62 0 5 -20 43 -45 83 -25 41
-45 77 -45 80 0 3 -16 31 -36 62 -40 62 -98 165 -115 204 -6 14 -15 32 -20 40
-55 94 -151 288 -170 342 -25 76 -24 96 11 142 28 37 40 85 23 87 -5 0 -185 1
-401 2 -281 1 -396 -1 -403 -9z"/>
<path d="M20513 12043 c-27 -10 -14 -52 25 -78 93 -63 109 -75 142 -109 37
-39 56 -93 68 -196 13 -110 5 -2875 -8 -2950 -7 -36 -14 -80 -17 -98 -4 -26
-22 -47 -90 -103 -90 -76 -104 -106 -53 -120 38 -11 593 -10 609 0 35 22 -26
81 -149 144 -19 10 -46 34 -59 55 -39 59 -81 144 -81 164 0 10 -10 38 -22 61
l-22 42 -6 1280 c-6 1348 -6 1315 36 1315 10 0 90 -94 219 -260 19 -25 59 -74
88 -109 53 -64 111 -140 224 -293 70 -93 158 -205 217 -276 51 -60 165 -211
238 -313 31 -44 71 -97 90 -118 18 -21 54 -70 81 -108 26 -38 75 -103 110
-145 34 -42 76 -95 92 -118 17 -23 61 -77 98 -119 38 -42 75 -89 82 -106 8
-16 39 -59 70 -95 30 -36 67 -82 83 -103 99 -136 199 -267 226 -297 17 -19 47
-57 66 -85 19 -27 53 -72 77 -98 23 -27 67 -83 96 -125 30 -42 66 -88 81 -101
14 -14 26 -28 26 -32 0 -5 23 -39 50 -76 98 -133 98 -133 134 -133 22 0 36 6
40 16 13 33 21 912 18 1964 -3 1122 3 1370 34 1476 14 51 27 68 90 129 73 69
86 94 62 111 -7 5 -152 9 -323 9 l-310 0 -3 -26 c-3 -23 6 -33 67 -73 67 -45
184 -164 211 -215 49 -93 59 -352 66 -1627 5 -896 4 -915 -42 -922 -24 -3 -73
47 -151 154 -32 44 -76 103 -98 131 -22 28 -71 94 -110 148 -38 54 -95 126
-126 159 -31 34 -63 72 -70 86 -8 14 -48 70 -89 124 -41 54 -90 119 -108 144
-18 26 -78 103 -132 172 -174 219 -261 333 -275 360 -7 14 -32 43 -55 65 -23
22 -75 87 -116 145 -104 146 -195 264 -263 340 -31 36 -74 91 -95 122 -20 31
-62 84 -92 118 -29 33 -54 64 -54 68 0 4 -41 61 -91 127 -50 66 -116 154 -148
196 -93 124 -134 170 -164 185 -22 12 -80 16 -255 19 -125 2 -233 1 -239 -2z"/>
<path d="M19355 9201 c-64 -39 -297 -328 -494 -611 -40 -58 -88 -125 -106
-150 -19 -25 -60 -83 -92 -130 -32 -47 -89 -128 -128 -180 -73 -99 -84 -115
-111 -165 -9 -16 -31 -48 -48 -70 -40 -51 -86 -122 -86 -134 0 -5 -7 -14 -15
-21 -7 -6 -28 -37 -45 -67 -18 -31 -49 -78 -71 -105 -21 -28 -39 -56 -39 -63
0 -7 -17 -35 -38 -62 -20 -26 -71 -103 -112 -170 -41 -68 -98 -160 -127 -205
-28 -46 -66 -112 -84 -148 -19 -36 -46 -81 -60 -100 -39 -53 -126 -196 -134
-221 -13 -40 -65 -103 -108 -131 -37 -23 -58 -28 -177 -38 -74 -7 -175 -16
-225 -21 -49 -5 -135 -13 -190 -18 -211 -19 -323 -33 -407 -52 -48 -10 -120
-19 -160 -19 -40 -1 -107 -7 -148 -15 -41 -9 -129 -21 -195 -29 -66 -8 -136
-19 -155 -25 -19 -6 -89 -15 -155 -20 -66 -5 -138 -16 -160 -24 -22 -8 -69
-17 -104 -21 -36 -4 -76 -13 -90 -20 -14 -8 -69 -19 -121 -26 -170 -21 -209
-23 -225 -10 -18 15 -19 57 -2 87 90 158 142 244 153 254 8 6 14 15 14 20 0 5
17 35 37 66 54 83 60 94 81 138 11 22 27 46 36 54 9 7 16 19 16 26 0 7 9 23
19 37 11 13 38 60 61 104 39 74 96 169 197 332 23 37 53 91 68 120 15 29 44
74 65 101 36 46 57 81 94 156 8 17 35 61 60 98 25 37 62 98 82 135 21 37 45
76 54 87 29 34 132 187 144 214 6 14 42 71 79 126 38 55 84 123 103 150 18 28
52 75 74 105 55 74 116 170 124 197 13 42 -27 93 -74 93 -24 0 -120 -106 -161
-177 -18 -32 -45 -73 -61 -91 -16 -19 -65 -88 -109 -155 -45 -67 -90 -131
-100 -143 -10 -11 -19 -24 -19 -30 0 -5 -15 -28 -33 -51 -17 -23 -45 -65 -62
-93 -31 -54 -38 -64 -142 -220 -35 -52 -63 -98 -63 -102 0 -5 -18 -31 -40 -59
-22 -28 -40 -57 -40 -64 0 -7 -10 -26 -23 -42 -13 -15 -34 -50 -46 -78 -36
-79 -61 -126 -101 -185 -61 -90 -78 -119 -122 -200 -10 -19 -32 -55 -47 -80
-16 -25 -70 -116 -120 -202 -50 -86 -107 -183 -128 -215 -21 -32 -49 -80 -64
-108 -14 -27 -43 -77 -64 -110 -51 -78 -78 -130 -116 -218 -16 -40 -44 -86
-61 -104 -43 -45 -141 -79 -273 -96 -42 -6 -116 -24 -210 -53 -44 -13 -94 -24
-111 -24 -17 0 -51 -7 -75 -15 -24 -9 -75 -20 -113 -26 -98 -13 -158 -45 -170
-88 -9 -30 -7 -36 14 -53 17 -14 33 -18 55 -14 16 3 55 8 85 11 30 4 75 15
100 25 25 10 77 23 115 28 39 6 95 17 125 25 159 42 257 48 285 17 17 -18 16
-22 -38 -107 -30 -48 -78 -133 -106 -188 -29 -55 -60 -113 -71 -130 -10 -16
-33 -57 -51 -90 -17 -33 -39 -71 -48 -85 -10 -14 -30 -50 -45 -80 -16 -30 -33
-61 -40 -69 -11 -14 -14 -20 -109 -203 -32 -62 -70 -133 -84 -158 -14 -25 -62
-115 -105 -200 -44 -85 -84 -160 -90 -167 -5 -7 -41 -74 -80 -150 -38 -76 -79
-152 -89 -170 -14 -22 -19 -46 -17 -75 3 -42 4 -43 42 -46 69 -6 78 1 125 95
24 48 63 120 85 158 62 106 74 126 95 171 11 23 31 60 45 82 24 38 92 162 124
227 9 17 40 73 70 125 30 52 77 140 105 195 27 55 64 123 82 150 39 60 91 154
142 255 20 41 45 84 54 95 23 27 134 244 143 278 8 32 63 107 103 141 48 40
89 55 165 62 40 4 97 15 127 26 30 10 77 18 106 18 28 0 85 9 126 19 41 10
105 22 143 26 38 4 90 13 115 21 26 7 100 18 165 24 64 6 129 16 144 24 15 7
63 16 107 19 44 3 100 13 125 22 29 10 107 20 215 26 94 5 197 14 230 19 33 6
107 15 165 20 58 6 114 13 125 16 11 3 61 10 110 15 132 13 244 27 292 35 58
9 91 -1 99 -31 4 -18 -7 -43 -48 -107 -30 -46 -72 -118 -92 -160 -21 -43 -44
-82 -52 -89 -8 -6 -14 -16 -14 -21 0 -5 -20 -39 -43 -76 -24 -37 -63 -103 -87
-147 -23 -44 -51 -89 -60 -100 -19 -20 -50 -76 -147 -265 -30 -58 -59 -110
-64 -117 -9 -10 -81 -148 -192 -368 -88 -174 -214 -441 -237 -500 -12 -33 -31
-78 -41 -101 -11 -23 -19 -48 -19 -57 0 -8 -16 -46 -36 -84 -36 -67 -53 -112
-98 -248 -66 -204 -56 -255 50 -239 34 5 49 13 66 37 27 38 65 144 77 212 13
80 42 187 61 230 10 22 37 79 59 127 23 47 41 89 41 92 0 4 38 83 84 176 47
94 88 180 92 193 4 12 14 33 23 46 18 28 61 131 61 147 0 6 8 22 18 35 11 13
44 71 74 129 106 199 131 245 148 270 9 14 36 63 59 110 24 47 51 99 61 115
10 17 21 41 25 55 4 14 24 47 45 75 20 27 43 62 51 77 8 14 29 54 47 88 18 34
51 89 72 122 38 56 121 206 164 293 51 105 93 124 300 136 88 5 208 14 266 19
58 5 196 13 307 18 216 9 241 16 264 66 14 31 -3 64 -38 72 -37 10 -344 -3
-376 -15 -15 -6 -125 -13 -245 -17 -180 -5 -220 -4 -236 8 -28 22 -22 62 16
115 18 26 47 71 62 98 16 28 47 79 70 115 23 36 46 74 53 85 90 147 142 228
173 269 21 26 59 87 86 135 26 47 71 116 98 153 28 36 73 101 100 145 27 43
68 107 91 143 23 36 65 103 93 150 28 47 78 119 112 160 33 41 67 91 76 110 9
19 31 51 49 70 31 33 88 114 129 183 11 18 43 61 71 97 70 89 119 158 140 199
9 19 36 55 60 80 61 66 234 296 245 326 14 38 12 53 -10 75 -25 25 -46 25 -85
1z"/>
<path d="M29575 7686 c-27 -13 -59 -33 -70 -46 -11 -13 -49 -42 -85 -65 -36
-24 -90 -68 -120 -99 -48 -49 -59 -56 -93 -56 -27 0 -48 8 -69 25 -16 14 -35
25 -43 25 -7 0 -18 6 -24 14 -16 19 -123 40 -173 32 -139 -20 -197 -35 -283
-75 -22 -11 -65 -30 -95 -43 -67 -28 -196 -99 -270 -148 -30 -20 -82 -49 -115
-65 -33 -16 -78 -44 -100 -61 -66 -52 -185 -114 -278 -145 -48 -16 -94 -29
-103 -29 -8 0 -29 -7 -45 -16 -17 -8 -68 -21 -114 -29 -45 -7 -93 -19 -106
-27 -19 -10 -95 -13 -349 -12 -277 0 -331 3 -367 17 -24 9 -71 19 -105 23 -35
4 -80 15 -100 25 -21 11 -48 19 -60 19 -13 0 -47 11 -76 25 -30 14 -62 25 -72
25 -9 0 -46 13 -81 29 -133 61 -183 118 -207 241 -18 86 -40 110 -104 110 -39
0 -54 -5 -74 -25 -68 -68 -67 -148 3 -253 43 -65 44 -69 40 -129 -4 -56 -18
-107 -69 -253 -21 -60 -54 -131 -107 -225 -18 -33 -51 -94 -72 -135 -22 -41
-65 -111 -96 -155 -31 -44 -68 -101 -83 -127 -29 -53 -258 -307 -323 -359
-136 -110 -232 -165 -268 -156 -13 4 -35 24 -49 44 -23 35 -25 47 -24 143 1
58 8 134 17 170 8 36 18 88 21 115 2 28 21 85 40 127 48 105 68 178 64 235 -3
40 -7 50 -31 63 -25 14 -30 13 -65 -6 -20 -12 -61 -50 -90 -85 -29 -35 -85
-102 -125 -148 -103 -119 -662 -676 -727 -725 -30 -22 -83 -64 -117 -94 -34
-29 -89 -72 -122 -95 -33 -23 -94 -66 -135 -94 -42 -29 -80 -53 -86 -53 -6 0
-28 -9 -50 -20 -22 -11 -59 -20 -84 -20 -36 0 -48 5 -65 26 -25 32 -26 42 -6
103 8 25 26 84 40 131 34 113 63 183 107 255 20 33 51 89 68 125 33 65 52 95
168 265 34 49 62 93 62 98 0 6 15 28 33 51 32 38 86 117 132 191 11 17 45 62
75 100 30 37 70 89 89 114 19 25 106 119 193 208 153 156 158 163 158 203 0
114 -72 108 -192 -17 -93 -96 -179 -174 -288 -258 -57 -44 -114 -90 -127 -103
-34 -32 -139 -109 -225 -165 -40 -26 -107 -72 -148 -102 -41 -30 -93 -64 -115
-75 -22 -11 -53 -29 -70 -40 -16 -11 -46 -29 -65 -40 -19 -11 -54 -33 -77 -48
-23 -15 -86 -54 -140 -86 -54 -33 -129 -79 -168 -103 -38 -23 -104 -59 -145
-80 -41 -20 -100 -52 -130 -72 -75 -49 -200 -109 -370 -178 -47 -19 -90 -39
-96 -44 -32 -26 -204 -69 -288 -71 l-87 -3 -46 48 -45 48 4 92 c3 84 7 100 46
180 23 49 42 98 42 108 0 20 71 143 127 219 18 25 44 66 58 92 14 26 44 70 67
97 60 70 80 98 113 156 16 28 46 73 67 102 57 78 72 115 64 157 -7 38 -29 56
-69 56 -36 0 -73 -34 -103 -93 -41 -83 -96 -149 -263 -316 -153 -153 -203
-193 -456 -364 -208 -140 -286 -189 -338 -215 -29 -14 -102 -54 -163 -89 -61
-35 -114 -63 -118 -63 -4 0 -62 -27 -129 -59 -67 -32 -138 -66 -157 -75 -19
-8 -42 -19 -50 -24 -52 -30 -230 -102 -252 -102 -7 0 -26 -9 -43 -20 -16 -11
-40 -20 -53 -20 -13 0 -35 -6 -50 -14 -42 -22 -140 -53 -207 -66 -33 -6 -85
-16 -115 -23 -30 -6 -113 -12 -185 -12 -122 0 -133 2 -180 26 -31 17 -63 45
-85 75 -34 48 -35 51 -35 149 0 81 5 112 24 165 13 36 30 72 36 80 7 8 27 45
44 81 33 69 89 131 132 147 14 6 72 8 130 5 147 -8 225 7 334 62 159 81 195
108 244 180 75 111 58 238 -41 312 -26 19 -44 23 -102 23 -222 0 -563 -234
-751 -515 -33 -49 -66 -101 -73 -115 -7 -14 -24 -45 -38 -70 -40 -71 -74 -168
-84 -245 -5 -38 -15 -89 -21 -112 -9 -33 -8 -51 4 -90 8 -26 18 -63 21 -81 17
-98 145 -198 296 -232 90 -20 358 -2 433 28 16 7 42 12 59 12 18 0 50 8 72 18
55 25 131 51 191 66 28 7 64 20 82 29 18 9 39 17 48 17 14 0 59 20 290 130 44
21 91 41 104 45 13 4 45 20 70 36 25 15 64 37 86 48 22 11 47 24 55 29 8 5 49
26 90 46 41 20 87 44 102 54 70 45 265 162 283 168 11 4 29 15 40 25 42 36
189 129 205 129 35 0 41 -23 19 -81 -12 -30 -27 -65 -35 -79 -22 -40 -44 -130
-44 -179 0 -24 7 -74 16 -110 34 -134 112 -213 224 -226 70 -8 233 11 274 32
15 8 49 21 75 28 56 16 125 41 168 60 17 8 34 15 38 15 4 0 58 25 119 56 61
31 122 62 136 68 67 30 217 109 254 134 22 15 73 43 111 62 78 37 181 100 235
141 19 15 80 53 135 84 55 32 124 77 154 101 29 24 57 44 63 44 5 0 34 16 64
35 30 19 59 35 64 35 6 0 15 -11 22 -25 10 -21 6 -32 -36 -93 -25 -38 -46 -72
-46 -76 0 -4 -9 -19 -20 -33 -11 -14 -20 -32 -20 -40 0 -9 -17 -36 -39 -62
-44 -53 -145 -243 -166 -314 -8 -26 -21 -60 -29 -75 -22 -38 -66 -161 -66
-182 0 -10 -9 -37 -20 -61 -30 -66 -26 -157 8 -238 27 -62 30 -65 81 -83 30
-10 57 -15 62 -12 5 3 43 11 85 20 102 19 312 123 413 204 41 33 78 60 82 60
12 0 161 124 209 175 25 26 68 62 97 80 61 40 426 402 448 445 9 17 24 30 34
30 38 0 43 -23 45 -212 1 -182 1 -183 31 -243 37 -74 69 -97 137 -102 56 -5
109 12 248 75 106 48 367 296 466 442 20 30 49 71 64 90 15 19 59 89 98 155
39 66 84 138 100 160 34 46 91 162 123 250 12 33 29 76 39 95 10 19 29 74 44
121 14 47 35 94 46 104 18 16 24 17 63 5 23 -7 58 -21 77 -31 37 -20 184 -69
205 -69 7 0 32 -9 56 -19 25 -11 83 -22 133 -26 49 -4 108 -14 130 -22 31 -12
103 -16 306 -20 270 -5 365 1 548 33 95 17 103 17 119 1 22 -21 12 -42 -62
-132 -77 -93 -101 -133 -130 -214 -47 -130 -25 -289 44 -321 41 -19 143 -24
218 -10 75 14 283 111 368 172 28 20 97 69 155 109 113 78 182 131 245 190 22
20 52 43 67 50 15 8 92 73 171 146 80 72 181 159 225 193 44 33 146 128 228
211 82 82 161 156 176 164 24 13 29 13 49 -4 21 -17 22 -20 8 -42 -8 -13 -25
-53 -38 -89 -12 -36 -33 -87 -45 -115 -39 -83 -64 -158 -71 -205 -4 -25 -13
-67 -21 -94 -29 -100 -9 -243 47 -343 17 -28 54 -74 83 -100 47 -43 62 -51
124 -63 46 -8 91 -10 129 -5 32 4 85 10 118 14 93 12 218 41 242 57 12 8 29
14 38 14 9 0 30 7 48 16 17 9 59 23 92 31 33 8 78 24 100 37 35 21 144 76 325
166 30 14 98 52 150 84 106 64 122 73 165 96 46 24 155 91 205 125 25 18 72
47 105 65 33 18 69 41 80 50 11 10 77 56 147 103 154 104 323 234 395 304 48
48 53 57 53 97 0 26 -6 48 -14 55 -22 19 -110 -16 -165 -64 -167 -146 -551
-426 -646 -471 -16 -8 -48 -25 -70 -38 -22 -14 -53 -32 -70 -42 -16 -9 -46
-29 -65 -44 -19 -15 -75 -49 -125 -75 -49 -26 -121 -66 -160 -89 -38 -22 -81
-46 -95 -53 -14 -7 -32 -17 -40 -22 -8 -5 -35 -18 -60 -29 -25 -10 -89 -40
-143 -66 -55 -25 -104 -46 -110 -46 -7 0 -33 -11 -59 -25 -26 -14 -59 -25 -73
-25 -14 0 -40 -8 -58 -17 -46 -24 -164 -43 -297 -50 l-115 -5 -52 42 c-67 55
-84 98 -85 210 -1 127 39 285 101 395 59 106 131 254 131 270 0 9 9 33 19 53
11 20 29 55 39 77 11 22 31 62 46 89 34 65 34 100 -3 137 -36 35 -60 36 -126
5z m-620 -320 c48 -15 105 -59 105 -82 0 -16 -272 -273 -444 -419 -102 -86
-235 -205 -241 -215 -4 -6 -31 -26 -61 -45 -30 -19 -74 -52 -97 -73 -46 -41
-118 -92 -131 -92 -4 0 -33 -17 -64 -39 -177 -119 -265 -162 -355 -168 -79 -6
-107 12 -107 68 0 23 8 55 18 72 49 88 216 300 312 397 72 72 258 223 326 265
18 11 59 43 92 70 63 52 86 68 214 146 95 58 270 118 369 128 9 0 37 -5 64
-13z m-9117 -912 c57 -40 47 -81 -40 -159 -76 -68 -261 -144 -350 -145 -40 0
-78 27 -78 55 0 61 312 263 410 264 20 1 46 -6 58 -15z"/>
<path d="M22352 7382 c-121 -166 -141 -272 -52 -272 46 0 59 9 99 69 58 87 93
174 89 224 -3 42 -3 42 -44 45 -41 3 -42 2 -92 -66z"/>
</g>
</svg>
